<svg width="55" height="84" viewBox="0 0 55 84" fill="none" xmlns="http://www.w3.org/2000/svg">
<g id="illustrates 1" clip-path="url(#clip0_882_3437)">
<path id="Vector" d="M-0.00390625 20.0312H54.9983V74.7234H-0.00390625V20.0312ZM1.39028 21.4134V73.3391H53.5976V21.4134H1.39028Z" fill="#0F4D94"/>
<path id="Vector_2" d="M18.7611 5.79874C18.7438 5.9432 18.733 6.08983 18.7069 6.22998C18.5638 6.99543 18.4077 7.75873 18.2733 8.52419C18.2433 8.66607 18.2517 8.81333 18.2978 8.95087C18.3439 9.08842 18.426 9.21129 18.5356 9.30688C18.8544 9.58288 19.2663 9.52251 19.4029 9.1193C19.5377 8.67932 19.6285 8.22721 19.674 7.76951C19.802 6.91541 20.0381 6.08082 20.3765 5.28556C20.3765 5.27047 20.4133 5.26831 20.4957 5.23381C20.4827 5.36534 20.4784 5.46884 20.4632 5.57234C20.3787 6.18901 20.2659 6.80568 20.2095 7.42667C20.1185 8.42284 20.5391 8.80449 21.543 9.15164C23.308 9.74675 25.1206 9.626 26.929 9.36726C28.448 9.17639 29.9254 8.73936 31.3023 8.07353C31.9788 7.73285 32.625 7.32749 33.2754 6.93506C33.4187 6.83768 33.5321 6.7027 33.6029 6.54512C33.6737 6.38753 33.6992 6.21352 33.6766 6.04239C33.6549 5.17991 33.978 4.41445 34.327 3.65763C34.327 3.64253 34.3661 3.63822 34.4485 3.60156C34.4225 3.88187 34.4008 4.13199 34.3748 4.37995C34.3357 4.75082 34.3032 5.12385 34.2447 5.49256C34.218 5.67451 34.1631 5.85126 34.082 6.01651C34.0039 6.131 33.9713 6.27026 33.9905 6.4073C34.0097 6.54434 34.0794 6.6694 34.1861 6.75825C34.6089 7.16577 34.6003 7.33395 34.2078 7.7501C34.1842 7.78904 34.1522 7.82227 34.1141 7.84737C34.076 7.87247 34.0327 7.88881 33.9874 7.89521C33.9422 7.90161 33.896 7.89791 33.8524 7.88437C33.8088 7.87083 33.7687 7.8478 33.7351 7.81694C33.2863 7.53017 33.1432 7.57977 32.625 7.98298C31.5838 8.80555 30.4111 9.44842 29.1558 9.88475C27.653 10.4083 26.0853 10.7246 24.4962 10.8249C23.5581 10.9151 22.6117 10.8605 21.6905 10.6631C21.1695 10.527 20.6666 10.3302 20.1922 10.0767C19.9602 9.9559 19.8171 9.66697 19.6024 9.41685C19.5179 9.5721 19.455 9.72088 19.3661 9.84809C19.1988 10.129 19.0057 10.3939 18.7893 10.6394C18.7194 10.7153 18.6308 10.7717 18.5321 10.8029C18.4335 10.8341 18.3284 10.839 18.2272 10.8172C18.1261 10.7954 18.0325 10.7476 17.9557 10.6785C17.879 10.6095 17.8217 10.5217 17.7898 10.4238C17.705 10.1095 17.6541 9.78713 17.638 9.46213C17.6387 9.33488 17.6503 9.20793 17.6727 9.08264C17.5166 9.23142 17.3973 9.29826 17.3539 9.39098C17.0222 10.15 16.3847 10.4928 15.6302 10.6847C15.0296 10.8443 14.4463 11.0426 13.9389 11.5666C14.1359 11.7079 14.3415 11.8368 14.5547 11.9526C15.4658 12.3364 16.4408 12.5484 17.4298 12.5779C19.3813 12.6878 21.3435 12.8086 23.3015 12.7935C25.0361 12.7719 26.7707 12.5951 28.5053 12.4204C29.7694 12.2932 31.0226 12.056 32.2824 11.8749C32.4819 11.8469 32.7399 11.7477 32.8201 12.0323C32.9003 12.317 32.6748 12.4528 32.4689 12.5239C31.9047 12.7423 31.3249 12.9182 30.7342 13.0501C29.3878 13.3002 28.0348 13.5287 26.6774 13.6969C25.4589 13.8479 24.2295 13.9276 23.0044 13.9859C21.8422 14.0441 20.6779 14.0592 19.5157 14.0462C17.9753 14.0639 16.437 13.9295 14.9233 13.6452C14.4199 13.5203 13.9346 13.3319 13.4793 13.0846C13.3497 13.0287 13.2477 12.9239 13.1957 12.7934C13.1437 12.6628 13.1459 12.5171 13.2017 12.3881C13.5299 11.4902 14.1951 10.7537 15.0578 10.3332C15.5283 10.0917 16.014 9.88044 16.4931 9.6562C16.8214 9.49641 17.1116 9.26869 17.3442 8.9883C17.5768 8.70791 17.7465 8.38132 17.8418 8.03041C18.089 7.27358 18.36 6.52107 18.6202 5.77071L18.7611 5.79874Z" fill="#0F4D94"/>
<path id="Vector_3" d="M2.44891 7.89043C2.34917 8.10605 2.25377 8.32167 2.14536 8.52219C1.73556 9.29843 1.30841 10.0639 1.29757 10.9824C1.29757 11.6293 1.64883 11.8902 2.17571 12.0605C3.04302 12.3301 4.32229 11.8298 4.77762 11.0751C4.85363 10.9552 4.89281 10.8158 4.89037 10.6741C4.85485 10.563 4.77703 10.4701 4.67355 10.4153C4.53478 10.3313 4.35915 10.3054 4.22038 10.2213C4.15745 10.1927 4.10083 10.152 4.05376 10.1016C4.0067 10.0512 3.97012 9.99203 3.94614 9.9275C3.92216 9.86298 3.91125 9.79437 3.91404 9.72564C3.91682 9.6569 3.93324 9.58939 3.96236 9.52699C4.30928 8.52435 4.82966 7.66402 5.87693 7.27591C6.11838 7.18765 6.38353 7.18765 6.62498 7.27591C7.04562 7.45918 7.33183 7.34275 7.35351 6.85976C7.37519 6.37677 7.66574 6.06196 7.90859 5.6911C7.98881 5.97787 7.94978 6.31208 8.22081 6.38324C8.47594 6.08258 8.75277 5.80081 9.04909 5.54016C9.36736 5.33313 9.70076 5.15006 10.0465 4.99248C9.93531 4.89099 9.79943 4.8201 9.65226 4.78682C9.5051 4.75354 9.35175 4.75903 9.20737 4.80274C8.95656 4.8993 8.7219 5.03306 8.51136 5.19948C8.53521 4.87605 8.99488 4.34993 9.37866 4.23781C9.8817 4.08472 10.3696 4.21194 10.8466 4.34562C10.9637 4.38012 11.1436 4.6173 11.1176 4.67121C11.02 4.89694 10.8645 5.09323 10.6666 5.24045C10.3892 5.38159 10.0988 5.49568 9.7993 5.58113C9.54345 5.68031 9.2876 5.78381 9.04041 5.9024C8.95892 5.95526 8.88584 6.01994 8.82359 6.0943C8.88956 6.15734 8.96227 6.21301 9.04041 6.26033C9.30494 6.39186 9.36565 6.60748 9.17918 6.8921C8.74553 7.5519 8.40078 7.87102 7.4771 7.53896C7.29166 7.7326 7.08921 7.9094 6.87216 8.06724C6.803 8.10603 6.7259 8.1287 6.64665 8.13355C6.5674 8.13841 6.48808 8.12532 6.41466 8.09527C6.01136 7.85809 5.7425 7.83221 5.33053 8.09527C5.17225 8.19661 5.02697 8.31089 4.87519 8.42301C4.55863 8.65372 4.59549 8.8176 4.98144 9.02459C5.44328 9.27471 5.51483 9.43642 5.43027 9.9647C5.30654 10.8634 4.93083 11.7093 4.34614 12.4055C3.71518 13.1408 2.91292 13.5807 1.90468 13.4836C1.13495 13.4146 0.644927 12.7182 0.722984 11.8902C0.854362 10.5458 1.348 9.26162 2.15186 8.17289C2.18872 8.11898 2.21474 8.05645 2.24727 7.99824C2.27979 7.94002 2.30798 7.89258 2.33833 7.83868L2.44891 7.89043Z" fill="#0F4D94"/>
<path id="Vector_4" d="M45.8049 7.05446C45.6603 7.8695 45.5158 8.68455 45.3712 9.4996C46.6722 8.70396 47.6588 7.59567 48.6952 6.54559C49.7316 5.49552 50.7333 4.38938 51.7437 3.32422C51.6787 3.78349 51.386 4.15867 51.0933 4.51229C50.3517 5.40712 49.5972 6.29332 48.8058 7.14502C48.1943 7.80482 47.52 8.40856 46.876 9.03601C46.8131 9.09639 46.7611 9.16538 46.7091 9.2236C46.7199 9.26241 46.7199 9.2926 46.7329 9.30123C47.6956 9.87694 47.3444 10.403 47.1058 11.2418C47.0107 11.5099 46.8962 11.7707 46.7633 12.0224C47.1102 12.0935 47.5026 11.7809 47.804 11.1944C48.1293 11.4704 48.3786 11.2871 48.6236 11.0585C48.6802 11.0212 48.7448 10.9975 48.8123 10.9895C48.8426 10.9895 48.8773 11.0025 48.9077 10.9895C49.1939 10.9443 49.8465 10.2068 49.8227 9.91143C49.804 9.51379 49.9125 9.12049 50.1327 8.78805C50.2346 8.61555 50.2888 8.41718 50.4146 8.24037C50.5037 8.7063 50.4904 9.18588 50.3756 9.64622C50.2687 10.1599 50.0237 10.6351 49.6667 11.0213C49.3097 11.4074 48.854 11.6901 48.3483 11.8391C48.0584 11.9697 47.778 12.1203 47.5091 12.2897C47.2424 12.4213 46.9649 12.5269 46.6895 12.6433C46.3686 12.777 46.0542 12.9323 45.7225 13.0358C44.9961 13.2665 44.3673 12.8202 44.4627 12.0784C44.5928 11.0219 44.8053 9.97396 45.0308 8.93251C45.1718 8.28565 45.3994 7.65604 45.5881 7.01996L45.8049 7.05446ZM45.935 10.4613C45.6936 10.5273 45.4591 10.6162 45.2346 10.7265C45.1603 10.7748 45.1003 10.842 45.0609 10.9213C45.0216 11.0005 45.0044 11.0887 45.011 11.1768C45.0176 11.2649 45.0479 11.3496 45.0987 11.4221C45.1495 11.4946 45.2189 11.5522 45.2997 11.589C45.7333 11.8175 46.1561 11.7054 46.5529 11.4747C46.6248 11.4497 46.6878 11.4045 46.7345 11.3447C46.7811 11.2848 46.8093 11.2128 46.8157 11.1374C46.8222 11.0619 46.8065 10.9863 46.7706 10.9195C46.7348 10.8527 46.6803 10.7976 46.6137 10.761C46.3979 10.6391 46.1706 10.5387 45.935 10.4613Z" fill="#0F4D94"/>
<path id="Vector_5" d="M34.0073 9.94947C33.9357 10.178 33.8946 10.3268 33.8469 10.4713C33.7037 10.9025 33.5281 11.3165 33.4132 11.7499C33.2419 12.4226 33.6018 13.2787 34.1504 13.4231C34.8476 13.63 35.5959 13.5842 36.2623 13.2937C37.5177 12.7288 38.0186 11.6744 38.1855 10.4001C38.2267 10.0724 38.2311 9.74032 38.2549 9.41258C38.2788 9.08483 38.4154 8.93821 38.7558 8.95114C39.4713 8.97702 39.6361 8.86921 39.9115 8.22666C40.0589 7.88167 40.2085 7.53883 40.3711 7.20246C40.4338 7.09465 40.5064 6.99287 40.588 6.89844L40.6769 6.92647C40.6769 7.03212 40.6552 7.14209 40.6573 7.24559C40.6415 7.42834 40.6547 7.61243 40.6964 7.79111C40.8005 8.07573 41.078 8.10807 41.2948 7.89245C41.3261 7.86283 41.3594 7.83545 41.3946 7.81052C41.3946 7.81052 41.4162 7.81052 41.4271 7.81052C41.5442 8.32369 41.0867 9.1603 40.601 9.31986C40.3733 9.39533 40.2475 9.31986 39.9505 8.91018C39.7835 9.09562 39.6274 9.27889 39.4583 9.44923C39.3829 9.54296 39.2821 9.61328 39.1678 9.65191C38.8187 9.70366 38.7341 9.91282 38.6257 10.2276C38.3438 11.1117 38.0923 12.0259 37.6478 12.8323C36.9973 14.0204 36.0671 14.926 34.5364 14.9303C33.4674 14.9303 32.8711 14.1476 32.9015 13.2247C32.9414 12.099 33.2642 11.0012 33.8403 10.0314C33.8512 10.0228 33.8794 10.0163 34.0073 9.94947Z" fill="#0F4D94"/>
<path id="Vector_6" d="M5.72151 19.4024C5.72151 18.9475 5.69332 18.4925 5.72151 18.0419C5.81041 16.802 5.88413 15.5579 6.04241 14.3267C6.16273 13.3412 6.45629 12.3844 6.90972 11.4999C7.29102 10.7337 7.92241 10.1187 8.70069 9.75556C9.08824 9.60381 9.40982 9.32142 9.60919 8.95777C9.80867 8.57612 10.0645 8.54593 10.5719 8.76802C10.8841 8.90602 10.9752 9.12164 10.8408 9.50544C10.7672 9.76617 10.6164 9.99881 10.4079 10.173C10.1994 10.3473 9.94301 10.455 9.67208 10.4822C9.00859 10.5771 8.3451 10.6655 7.76401 11.0773C7.33547 11.3907 7.02236 11.8354 6.87286 12.343C6.55205 13.3484 6.35546 14.3889 6.28743 15.4415C6.18552 16.6791 6.02073 17.9125 5.87763 19.148C5.8611 19.2377 5.83642 19.3258 5.8039 19.4111L5.72151 19.4024Z" fill="#0F4D94"/>
<path id="Vector_7" d="M13.9859 78.8391H13.4395V75.7449C13.6647 75.7309 13.8907 75.7309 14.1159 75.7449C14.1897 75.7449 14.2742 75.8765 14.3024 75.9606C14.4846 76.5104 14.6515 77.0667 14.8532 77.7157C15.0418 77.1184 15.2174 76.6182 15.3519 76.105C15.4277 75.8118 15.5535 75.6738 15.8722 75.7255C16.0079 75.7364 16.1442 75.7364 16.2799 75.7255V78.811H15.7075V77.0214L15.6316 77.0041C15.5774 77.1572 15.521 77.3103 15.4711 77.4656C15.3453 77.8537 15.2348 78.244 15.0917 78.6256C15.0668 78.6771 15.0297 78.7219 14.9837 78.7561C14.9376 78.7903 14.8839 78.8128 14.8271 78.8218C14.771 78.8111 14.7182 78.7873 14.673 78.7525C14.6278 78.7176 14.5914 78.6727 14.5669 78.6213C14.3805 78.0952 14.22 77.5605 13.9945 77.0365L13.9859 78.8391Z" fill="#0F4D94"/>
<path id="Vector_8" d="M32.0723 75.7736C32.0884 75.7653 32.1051 75.7581 32.1221 75.752C32.8507 75.7046 32.8507 75.7046 33.0632 76.3989C33.1911 76.8172 33.3233 77.2333 33.4795 77.7357C33.6703 77.1298 33.8524 76.6145 33.9868 76.0862C34.0606 75.8016 34.2037 75.7132 34.4725 75.7477C34.6133 75.7564 34.7545 75.7564 34.8953 75.7477V78.8354H34.3251V77.0371L34.2492 77.022C34.1256 77.3993 34.0042 77.7788 33.8806 78.1562C33.8307 78.3136 33.7722 78.4688 33.7353 78.6284C33.6985 78.7879 33.6204 78.9087 33.4469 78.844C33.392 78.8268 33.3411 78.7988 33.2972 78.7618C33.2533 78.7248 33.2172 78.6794 33.1911 78.6284C33.0198 78.1519 32.8745 77.6667 32.7206 77.1859C32.7124 77.1572 32.6984 77.1305 32.6794 77.1075C32.6603 77.0845 32.6367 77.0657 32.61 77.0522V78.8289H32.0723V75.7736Z" fill="#0F4D94"/>
<path id="Vector_9" d="M20.7323 78.8184L20.1598 77.0482H20.0991V78.8292H19.5527V75.7825C19.5809 75.7674 19.5983 75.7501 19.6178 75.7501C20.3355 75.7178 20.3333 75.7178 20.548 76.397C20.6716 76.7959 20.7995 77.1927 20.9274 77.5894C20.9274 77.5894 20.9426 77.6045 20.9838 77.6498L21.4174 76.2482C21.5822 75.7307 21.5844 75.7308 22.1286 75.7351H22.3758V78.8292H21.786V77.0288H21.7167C21.5584 77.5247 21.3849 78.0185 21.2505 78.5209C21.1854 78.8098 21.0488 78.9327 20.7323 78.8184Z" fill="#0F4D94"/>
<path id="Vector_10" d="M36.9559 82.9916C36.5461 83.1145 36.3054 82.9722 36.1276 82.6078C35.8848 82.1183 35.5877 81.6548 35.2603 81.0985V82.9916H34.6641V79.9514C35.256 79.8371 35.269 79.8436 35.5509 80.333C35.7913 80.7715 36.0563 81.1962 36.3445 81.6052V79.9341H36.9516L36.9559 82.9916Z" fill="#0F4D94"/>
<path id="Vector_11" d="M39.5878 78.8453H38.998V75.7878C39.5336 75.6541 39.6073 75.6843 39.8653 76.1522C40.1076 76.5968 40.3807 77.024 40.6828 77.4308V75.7576H41.2791V78.8C40.789 78.9294 40.7305 78.9078 40.4941 78.4981C40.2079 78.0043 39.9217 77.5084 39.5791 76.9198L39.5878 78.8453Z" fill="#0F4D94"/>
<path id="Vector_12" d="M3.68138 82.9923C3.60317 83.0269 3.51849 83.0448 3.43287 83.0447C3.34724 83.0446 3.2626 83.0266 3.18444 82.9918C3.10629 82.957 3.03639 82.9063 2.9793 82.8428C2.92221 82.7794 2.87921 82.7046 2.8531 82.6235C2.60191 82.1221 2.3066 81.6437 1.97063 81.194V82.9923H1.38086V79.9736C1.8969 79.8269 1.99881 79.8701 2.26117 80.3272C2.50492 80.7728 2.77875 81.2014 3.08077 81.6101V79.9369H3.68138V82.9923Z" fill="#0F4D94"/>
<path id="Vector_13" d="M13.3191 79.9244H13.9262V82.9776C13.408 83.0918 13.3928 83.0875 13.1283 82.6326C12.8637 82.1776 12.5667 81.6644 12.2393 81.0995V82.9926H11.6387V79.9524C12.2284 79.836 12.2458 79.8446 12.5255 80.3319C12.767 80.7704 13.0319 81.1958 13.3191 81.6062V79.9244Z" fill="#0F4D94"/>
<path id="Vector_14" d="M25.0528 79.9304H25.6491V82.9944C25.571 83.0294 25.4865 83.0475 25.4009 83.0476C25.3153 83.0477 25.2307 83.0297 25.1526 82.9949C25.0745 82.96 25.0047 82.9091 24.9479 82.8455C24.8911 82.7818 24.8485 82.7069 24.8229 82.6257C24.571 82.1244 24.2742 81.6466 23.9361 81.1983V83.0095H23.3594V79.9606C23.8906 79.8248 23.9643 79.8571 24.2267 80.325C24.4705 80.7692 24.7443 81.1964 25.0463 81.6036L25.0528 79.9304Z" fill="#0F4D94"/>
<path id="Vector_15" d="M22.9522 81.4824V81.7476C22.9305 82.871 22.2323 83.2139 21.1937 82.9918C20.6712 82.8797 20.4674 82.4635 20.4284 81.987C20.3947 81.593 20.4078 81.1964 20.4674 80.8054C20.5671 80.193 20.9552 79.917 21.6252 79.9062C22.3603 79.9062 22.7419 80.1456 22.8872 80.7687C22.9298 81.0063 22.9595 81.246 22.9761 81.4868L22.9522 81.4824ZM21.0441 81.5083C21.0502 81.6786 21.0654 81.8485 21.0897 82.0172C21.1029 82.1565 21.1709 82.285 21.2789 82.3746C21.387 82.4643 21.5262 82.5079 21.6664 82.4959C22.0155 82.4959 22.2258 82.3535 22.2627 82.0107C22.2952 81.6845 22.2952 81.3559 22.2627 81.0296C22.2638 80.9544 22.2483 80.8798 22.2171 80.8113C22.1859 80.7427 22.1398 80.6819 22.0823 80.633C22.0247 80.5842 21.957 80.5487 21.884 80.5289C21.811 80.5091 21.7345 80.5056 21.6599 80.5186C21.5848 80.5133 21.5093 80.5234 21.4383 80.5485C21.3673 80.5735 21.3023 80.6129 21.2473 80.6641C21.1923 80.7153 21.1486 80.7773 21.1188 80.8462C21.0891 80.915 21.074 80.9892 21.0745 81.0641C21.0593 81.1957 21.0571 81.338 21.0441 81.4975V81.5083Z" fill="#0F4D94"/>
<path id="Vector_16" d="M31.604 77.3122C31.604 77.3898 31.604 77.4674 31.604 77.5429C31.5802 78.7676 30.8386 78.994 29.8998 78.8366C29.349 78.7417 29.1192 78.3126 29.078 77.8081C29.045 77.414 29.0588 77.0174 29.1192 76.6265C29.2146 76.0292 29.594 75.764 30.251 75.736C30.9882 75.7123 31.3785 75.9516 31.5325 76.5661C31.5803 76.814 31.6129 77.0646 31.63 77.3165L31.604 77.3122ZM29.6959 77.2949C29.709 77.4545 29.709 77.6313 29.735 77.8059C29.7382 77.8778 29.756 77.9483 29.7872 78.0132C29.8184 78.0781 29.8625 78.1362 29.9167 78.1839C29.9709 78.2315 30.0342 78.2679 30.1028 78.2907C30.1714 78.3136 30.2439 78.3225 30.3161 78.3169C30.6673 78.3169 30.8776 78.1789 30.9145 77.834C30.947 77.4969 30.947 77.1576 30.9145 76.8205C30.9117 76.7511 30.8945 76.683 30.864 76.6205C30.8334 76.558 30.7903 76.5024 30.7371 76.4572C30.684 76.4121 30.6221 76.3784 30.5552 76.3581C30.4883 76.3379 30.418 76.3316 30.3486 76.3397C30.2767 76.3301 30.2035 76.3349 30.1335 76.3539C30.0635 76.3729 29.998 76.4057 29.941 76.4504C29.884 76.495 29.8366 76.5506 29.8015 76.6138C29.7665 76.677 29.7446 76.7466 29.7371 76.8184C29.7003 76.9693 29.7111 77.1246 29.7003 77.2949H29.6959Z" fill="#0F4D94"/>
<path id="Vector_17" d="M10.6416 81.9136L11.0991 82.9744C10.5267 83.1102 10.4768 83.0887 10.2708 82.6035C10.2231 82.4914 10.1776 82.3879 10.1299 82.2693C9.98893 81.9459 9.98893 81.9481 9.58129 82.0149V82.9917H8.97852V79.8867C9.5054 79.9169 10.0323 79.9255 10.5527 79.9838C10.686 80.0043 10.8095 80.0656 10.9062 80.1591C11.003 80.2526 11.0681 80.3736 11.0926 80.5055C11.2292 81.0511 11.1685 81.5535 10.6416 81.9136ZM9.60081 80.4322V81.5103C9.91954 81.4133 10.2231 81.3831 10.4421 81.23C10.4892 81.1436 10.5138 81.0469 10.5138 80.9487C10.5138 80.8504 10.4892 80.7537 10.4421 80.6673C10.2123 80.5228 9.90653 80.5034 9.60081 80.4258V80.4322Z" fill="#0F4D94"/>
<path id="Vector_18" d="M45.9215 83.0072H45.2537C45.1496 82.7613 45.0369 82.5242 44.948 82.2762C44.9395 82.2166 44.9165 82.16 44.881 82.1112C44.8456 82.0625 44.7987 82.023 44.7445 81.9962C44.6903 81.9695 44.6303 81.9563 44.5698 81.9577C44.5094 81.9592 44.4501 81.9752 44.3973 82.0045V82.9921H43.7793V79.8828C44.3241 79.8937 44.8678 79.9362 45.4077 80.01C45.517 80.0536 45.6159 80.1195 45.6981 80.2034C45.7802 80.2874 45.8438 80.3875 45.8847 80.4973C46.1015 81.0234 45.9172 81.5345 45.451 81.914L45.9215 83.0072ZM44.4038 81.4978C44.7182 81.4116 45.0282 81.39 45.2429 81.2347C45.3404 81.1657 45.3318 80.7733 45.2255 80.6353C45.026 80.3723 44.6943 80.4952 44.4038 80.5059V81.4978Z" fill="#0F4D94"/>
<path id="Vector_19" d="M28.7089 78.8404H28.0888V77.6006H27.0242V78.8274H26.4062V75.7656H27.0069V76.9084H28.0758V75.7656H28.7089V78.8404Z" fill="#0F4D94"/>
<path id="Vector_20" d="M31.8336 79.9258H32.458C32.458 80.5964 32.458 81.2562 32.458 81.9116C32.458 82.3235 32.612 82.4809 32.9762 82.4874C33.3795 82.4874 33.527 82.3537 33.5335 81.9246C33.5335 81.2777 33.5335 80.6071 33.5335 79.9322H34.1254C34.1254 80.7322 34.1536 81.5235 34.1146 82.3041C34.0951 82.7353 33.798 82.9509 33.3752 83.0221C33.2776 83.0372 33.1779 83.0523 33.0781 83.0609C32.2737 83.117 31.8834 82.8151 31.8379 82.0173C31.801 81.3338 31.8336 80.6416 31.8336 79.9258Z" fill="#0F4D94"/>
<path id="Vector_21" d="M24.3579 76.9565C24.5606 76.717 24.7468 76.4641 24.9152 76.1996C25.1515 75.7684 25.4789 75.6455 25.9668 75.7856C25.7131 76.1155 25.4702 76.4498 25.2057 76.7667C25.1507 76.8183 25.1162 76.8878 25.1082 76.9625C25.1003 77.0372 25.1195 77.1124 25.1623 77.1742C25.4486 77.7176 25.7174 78.2674 25.9971 78.8259C25.3293 78.9035 25.3293 78.9035 25.0626 78.3666L24.6463 77.5537C24.1324 77.8729 24.3362 78.386 24.2647 78.8475H23.6836V75.7598H24.2799V76.9327L24.3579 76.9565Z" fill="#0F4D94"/>
<path id="Vector_22" d="M14.8465 83.0103H14.3066C14.3457 82.8701 14.3804 82.7407 14.4216 82.6113C14.6731 81.792 14.9398 80.9748 15.1718 80.149C15.2498 79.8751 15.4255 79.9032 15.6228 79.9032C15.8201 79.9032 15.9654 79.8859 16.0391 80.1468C16.3079 81.0869 16.6137 82.0162 16.9064 82.9499C16.4727 83.1051 16.3491 83.0555 16.1583 82.6739C16.1424 82.6424 16.1198 82.6147 16.0921 82.5928C16.0644 82.5708 16.0323 82.5551 15.9979 82.5467C15.7348 82.5078 15.4674 82.5078 15.2043 82.5467C15.0655 82.5919 14.9875 82.8184 14.8465 83.0103ZM15.948 81.9451C15.8309 81.5634 15.7312 81.2098 15.5902 80.7721C15.4558 81.2034 15.3474 81.5678 15.2303 81.9451H15.948Z" fill="#0F4D94"/>
<path id="Vector_23" d="M19.2356 78.8513C19.0751 78.8513 18.9537 78.8513 18.8345 78.8513C18.648 78.8707 18.5374 78.8103 18.5179 78.6141C18.4984 78.4179 18.3704 78.3403 18.171 78.364C18.0831 78.3737 17.9943 78.3737 17.9064 78.364C17.5443 78.3165 17.2668 78.3834 17.2755 78.834H16.625C16.8765 78.019 17.1259 77.2169 17.373 76.4126C17.4186 76.3002 17.4542 76.1841 17.4793 76.0655C17.5162 75.7722 17.6961 75.7226 17.9585 75.7205C18.0089 75.7116 18.0605 75.7132 18.1103 75.7252C18.16 75.7371 18.2067 75.7592 18.2474 75.79C18.2881 75.8208 18.322 75.8596 18.3469 75.9041C18.3718 75.9485 18.3872 75.9976 18.3921 76.0482C18.6263 76.8611 18.893 77.6675 19.1445 78.4761C19.1684 78.5904 19.1966 78.7047 19.2356 78.8513ZM17.952 76.6951H17.8869L17.5617 77.7732H18.2772L17.952 76.6951Z" fill="#0F4D94"/>
<path id="Vector_24" d="M27.6609 79.9084L28.6301 83.0219C28.4718 83.0219 28.3526 83.0219 28.2376 83.0219C28.0447 83.0413 27.9167 82.9961 27.8951 82.7761C27.8734 82.5562 27.7671 82.5152 27.5763 82.5368C27.4661 82.5497 27.3548 82.5497 27.2446 82.5368C26.8998 82.498 26.6396 82.5605 26.6743 83.0025H26C26.3079 82.0215 26.6093 81.0447 26.9237 80.0723C26.9422 80.0331 26.9693 79.9986 27.0031 79.9713C27.0369 79.944 27.0765 79.9247 27.1188 79.9148C27.2992 79.9007 27.4803 79.8986 27.6609 79.9084ZM27.6609 81.9482C27.5438 81.5644 27.4441 81.2129 27.3031 80.7752L26.9432 81.9482H27.6609Z" fill="#0F4D94"/>
<path id="Vector_25" d="M41.457 79.9219H43.2935V80.5105H42.0598V81.1401H43.2567V81.6986H42.0598V82.4231H43.3217L43.3608 82.9923H41.4657L41.457 79.9219Z" fill="#0F4D94"/>
<path id="Vector_26" d="M8.45112 81.728H7.24991V82.4481H8.05433C8.57688 82.4481 8.57688 82.4481 8.50316 83.0023H6.64062V79.9297H8.48581V80.5075H7.25858V81.1544H8.45112V81.728Z" fill="#0F4D94"/>
<path id="Vector_27" d="M36.067 77.5359V78.2711H37.3376V78.8253H35.4707V75.7656H37.3007V76.3392H36.0756V76.9688H37.2704V77.5359H36.067Z" fill="#0F4D94"/>
<path id="Vector_28" d="M13.051 5.41016C13.06 5.5221 13.06 5.63458 13.051 5.74652C12.884 6.63057 12.7062 7.51246 12.5436 8.39435C12.5034 8.53947 12.5178 8.69418 12.584 8.82952C12.6503 8.96486 12.7639 9.07155 12.9035 9.12961C12.9846 8.96792 13.0796 8.81352 13.1876 8.66818C13.2656 8.57978 13.4044 8.46982 13.502 8.49138C13.5996 8.51294 13.6711 8.67465 13.747 8.78031C13.7637 8.80896 13.7698 8.84251 13.7643 8.87518C13.6918 9.41988 13.4543 9.92975 13.0835 10.3371C12.9989 10.4421 12.8788 10.513 12.7455 10.5364C12.6122 10.5598 12.475 10.5342 12.3593 10.4643C12.0753 10.3112 11.8671 10.0891 11.8975 9.76138C11.943 9.22664 12.0254 8.69406 12.1143 8.16579C12.2727 7.25719 12.5391 6.37053 12.9079 5.52443C12.9166 5.49856 12.9556 5.48562 13.051 5.41016Z" fill="#0F4D94"/>
<path id="Vector_29" d="M48.3479 79.9986C48.2914 80.1496 48.2188 80.2942 48.1311 80.4298C48.0557 80.5024 47.9563 80.5453 47.8514 80.5505C47.6672 80.5279 47.4819 80.5156 47.2963 80.5139C47.1706 80.5311 47.0578 80.6519 46.9407 80.7295C47.0296 80.8503 47.0969 81.0098 47.2161 81.081C47.4059 81.1682 47.6024 81.2403 47.8037 81.2966C48.3154 81.495 48.5062 81.8141 48.4238 82.3208C48.3523 82.752 48.0379 83.0086 47.524 83.0345C47.0598 83.0968 46.5877 83.0067 46.1797 82.7779L46.4464 82.3467C46.7558 82.412 47.0696 82.4545 47.3852 82.4739C47.4649 82.4654 47.5415 82.4388 47.6092 82.3962C47.6769 82.3536 47.7338 82.2961 47.7755 82.2281C47.8709 82.0125 47.6931 81.8895 47.5023 81.8184C47.3115 81.7472 47.0687 81.6696 46.8518 81.5812C46.6922 81.5312 46.5528 81.432 46.4537 81.2978C46.3547 81.1636 46.3012 81.0016 46.3011 80.8352C46.2881 80.3004 46.583 79.9339 47.1185 79.9102C47.5296 79.9182 47.94 79.9478 48.3479 79.9986Z" fill="#0F4D94"/>
<path id="Vector_30" d="M40.1635 83.0169H39.4588C39.1444 81.9884 38.83 80.9642 38.5156 79.9335C39.1531 79.871 39.1531 79.871 39.3244 80.4381C39.4805 80.9556 39.6344 81.4709 39.8491 81.9992C40.0551 81.307 40.2611 80.6171 40.4671 79.9206H41.1175C40.7923 80.9621 40.4779 81.9862 40.1635 83.0169Z" fill="#0F4D94"/>
<path id="Vector_31" d="M53.8881 83.0063H53.1899C53.448 81.8096 52.6067 80.9622 52.2598 79.9552C52.8517 79.8366 52.8777 79.8496 53.1271 80.3865L53.4783 81.1303C53.4913 81.1605 53.5087 81.1886 53.5564 81.2727C53.706 80.9557 53.8383 80.6754 53.9727 80.3951C54.2134 79.8992 54.2134 79.8992 54.8161 79.9358C54.7983 80.0045 54.7766 80.0722 54.7511 80.1385C54.6253 80.408 54.5017 80.6775 54.363 80.9384C54.0139 81.5745 53.7168 82.23 53.8881 83.0063Z" fill="#0F4D94"/>
<path id="Vector_32" d="M18.9941 79.9297V80.5032H18.1637V82.9937H17.5132V80.5205H16.6914V79.9297H18.9941Z" fill="#0F4D94"/>
<path id="Vector_33" d="M5.52346 83.0101H4.85564V80.5132H4.04688V79.9375H6.34089V80.4981H5.52346V83.0101Z" fill="#0F4D94"/>
<path id="Vector_34" d="M52.1397 79.9336V80.5071H51.3028V83.0062H50.6523V80.5266H49.8457V79.9336H52.1397Z" fill="#0F4D94"/>
<path id="Vector_35" d="M10.8362 11.9688C10.9815 12.0377 11.1073 12.0852 11.22 12.152C11.3618 12.2283 11.4675 12.3573 11.5138 12.5109C11.5602 12.6645 11.5434 12.8301 11.4672 12.9714C11.262 13.2616 11.0397 13.5395 10.8015 13.8037C10.7148 13.6786 10.6844 13.6226 10.6433 13.5751C10.2703 13.1439 10.1359 13.1439 9.70873 13.5018C9.59543 13.5853 9.47743 13.6624 9.35531 13.7325L8.66797 13.2323C8.88479 12.8916 9.09078 12.5854 9.27725 12.2836C9.2888 12.2488 9.30908 12.2175 9.33616 12.1927C9.36325 12.1678 9.39625 12.1503 9.43205 12.1416C9.46785 12.133 9.50527 12.1336 9.54078 12.1433C9.57629 12.1531 9.60872 12.1716 9.63501 12.1973C9.86918 12.3547 10.0968 12.525 10.3245 12.6868L10.8362 11.9688Z" fill="#0F4D94"/>
<path id="Vector_36" d="M43.2606 11.393C43.2472 11.9077 43.054 12.4017 42.7142 12.7902C42.5964 12.9306 42.4421 13.0361 42.2682 13.0954C42.0943 13.1547 41.9073 13.1655 41.7277 13.1266C41.6711 13.1251 41.6156 13.1104 41.5657 13.0838C41.5158 13.0571 41.4729 13.0192 41.4405 12.9731C41.408 12.927 41.3868 12.8739 41.3787 12.8182C41.3706 12.7624 41.3758 12.7056 41.3938 12.6522C41.4829 12.359 41.5886 12.0711 41.7103 11.7897C41.8318 11.4857 41.977 11.1924 42.0811 10.8841C42.157 10.6685 42.2242 10.4529 42.5039 10.4529C42.6379 10.4381 42.7729 10.4685 42.8874 10.5393C43.0018 10.6101 43.089 10.7171 43.1349 10.8431C43.1896 11.0233 43.2317 11.207 43.2606 11.393ZM42.1765 12.5207C42.3738 12.3654 42.6383 12.2576 42.6644 12.111C42.6673 12.0588 42.6578 12.0066 42.6367 11.9587C42.6157 11.9108 42.5836 11.8685 42.5431 11.8352C42.5027 11.8018 42.4549 11.7784 42.4036 11.7668C42.3524 11.7551 42.2991 11.7556 42.2481 11.7682C42.0638 11.8242 41.9272 12.0441 41.771 12.1994L42.1765 12.5207Z" fill="#0F4D94"/>
<path id="Vector_37" d="M47.0476 4.97329L47.6243 3.92969C48.3051 4.20999 48.3875 4.61105 48.1599 5.02073C47.878 5.52959 47.6135 5.57919 47.0562 5.21263C46.9543 5.35494 46.8589 5.50372 46.7505 5.64387C46.6421 5.78402 46.5228 5.90909 46.4014 6.04924C46.2822 5.99318 46.1846 5.94358 46.0892 5.90262C45.5927 5.69778 45.5645 5.61584 45.842 5.16088C45.9596 4.95031 46.0892 4.74658 46.2301 4.55068C46.2648 4.5203 46.3065 4.49874 46.3514 4.48785C46.3963 4.47696 46.4433 4.47706 46.4881 4.48814C46.5958 4.53668 46.693 4.60551 46.7744 4.69083C46.8719 4.77061 46.95 4.86332 47.0476 4.97329Z" fill="#0F4D94"/>
<path id="Vector_38" d="M29.5403 79.9336V82.4262H30.7458L30.7849 82.9933H28.957V79.9336H29.5403Z" fill="#0F4D94"/>
<path id="Vector_39" d="M53.7224 9.76172C54.3382 10.1714 54.5897 10.7838 54.3057 11.4716C54.1555 11.8253 53.9809 12.1682 53.7831 12.4979C53.5424 12.9033 53.1001 12.9055 52.7185 13.0241L52.6621 12.9464C52.7298 12.862 52.8022 12.7814 52.8789 12.7049C53.0958 12.5109 53.3321 12.319 53.5641 12.1314C53.7961 11.9438 53.7311 11.7929 53.6053 11.6117C53.5547 11.5282 53.4884 11.455 53.4102 11.3961C53.0394 11.1676 53.0979 10.87 53.2627 10.5595C53.4102 10.2857 53.5706 10.0269 53.7224 9.76172Z" fill="#0F4D94"/>
<path id="Vector_40" d="M42.4795 78.8412H41.8789V75.7578H42.4795V78.8412Z" fill="#0F4D94"/>
<path id="Vector_41" d="M48.873 79.9258H49.4737V82.9919H48.873V79.9258Z" fill="#0F4D94"/>
<path id="Vector_42" d="M12.2676 75.7578H12.8682V78.8282H12.2676V75.7578Z" fill="#0F4D94"/>
<path id="Vector_43" d="M0.82088 83.0062H0.224609V79.9336H0.82088V83.0062Z" fill="#0F4D94"/>
<path id="Vector_44" d="M38.1579 83.0058H37.5508V79.9375H38.1579V83.0058Z" fill="#0F4D94"/>
<path id="Vector_45" d="M38.4279 75.7656V78.8361H37.8164V75.7656H38.4279Z" fill="#0F4D94"/>
<path id="Vector_46" d="M19.9854 83.0092H19.3848V79.9258H19.9854V83.0092Z" fill="#0F4D94"/>
<path id="Vector_47" d="M42.3835 3.47282C42.3835 3.7984 42.1407 3.87602 41.9304 3.9903L39.5236 5.29696C39.4219 5.34319 39.3304 5.40917 39.2547 5.49102C39.5431 5.70665 39.8185 5.82955 39.7057 6.17023C39.6306 6.34763 39.5422 6.51917 39.4412 6.68341L39.3415 6.64028C39.3512 6.53629 39.3512 6.43162 39.3415 6.32763C39.3176 6.1961 39.374 6.00851 39.1116 6.00851C39.0618 6.00851 38.9555 5.73899 38.975 5.6053C39.0401 5.11584 39.4195 4.84632 39.8098 4.64579C40.6229 4.21455 41.462 3.85015 42.2903 3.45988C42.3011 3.45125 42.3271 3.46419 42.3835 3.47282Z" fill="#0F4D94"/>
<path id="Vector_48" d="M37.1419 4.32812C37.1656 4.51618 37.1722 4.70598 37.1614 4.89521C37.0422 5.66497 36.9164 6.43259 36.7733 7.19804C36.7533 7.40796 36.682 7.60983 36.5656 7.78608C36.4492 7.96234 36.2912 8.10762 36.1055 8.2093C36.1597 7.93977 36.2204 7.73709 36.2399 7.53225C36.2746 7.14845 36.3006 6.76248 36.3049 6.37868C36.3049 5.66713 36.6605 5.08496 36.9728 4.47259C36.9901 4.44025 37.0335 4.42084 37.1419 4.32812Z" fill="#0F4D94"/>
<path id="Vector_49" d="M35.8255 9.59375C36.006 9.64896 36.1709 9.74566 36.3069 9.87602C36.4429 10.0064 36.5461 10.1667 36.6082 10.3441C36.7687 10.6956 36.4174 11.3403 36.0315 11.4222C35.9066 11.4264 35.785 11.3815 35.6932 11.2972C35.1013 10.7861 35.1078 10.784 35.5393 10.1199C35.6455 9.95168 35.7279 9.77272 35.8255 9.59375Z" fill="#0F4D94"/>
<path id="Vector_50" d="M39.5428 11.4727C39.9482 11.7055 40.2756 11.9319 40.3212 12.402C40.3393 12.5879 40.2974 12.7746 40.2015 12.9352C40.1055 13.0957 39.9606 13.2217 39.7878 13.2947C39.6838 13.3106 39.5778 13.3062 39.4755 13.2817C39.456 13.2817 39.4387 13.258 39.4235 13.2429C38.773 12.6413 38.7578 12.9216 39.1741 12.1648L39.5428 11.4727Z" fill="#0F4D94"/>
<path id="Vector_51" d="M50.9824 13.0575C50.9108 12.9604 50.8631 12.9238 50.8675 12.8958C51.0344 11.8176 51.1775 10.7223 51.3943 9.64635C51.5181 9.1967 51.7143 8.76999 51.9754 8.38281C51.8996 8.98655 51.8367 9.59244 51.7413 10.1919C51.6264 10.9056 51.5006 11.6193 51.3423 12.3244C51.2505 12.5815 51.1298 12.8274 50.9824 13.0575Z" fill="#0F4D94"/>
<path id="Vector_52" d="M39.8093 15.3499C38.942 14.8777 38.8986 14.7397 39.3756 13.8988C39.4559 13.7565 39.5448 13.6185 39.6293 13.4805C40.592 13.8901 40.6593 14.5694 39.8093 15.3499Z" fill="#0F4D94"/>
<path id="Vector_53" d="M16.3409 5.0625C16.1241 6.30232 16.2477 7.64995 15.3066 8.69787C15.5777 7.46667 15.5907 6.16863 16.3409 5.0625Z" fill="#0F4D94"/>
<path id="Vector_54" d="M47.0161 2.62109C47.1353 2.71812 47.1744 2.75478 47.2177 2.78928C47.8378 3.2658 47.8053 3.78113 47.1505 4.22315C46.8188 4.43877 46.68 4.10672 46.4632 4.00753C46.4198 3.99028 46.4241 3.73585 46.4762 3.62373C46.6323 3.3003 46.8296 2.98334 47.0161 2.62109Z" fill="#0F4D94"/>
<path id="Vector_55" d="M51.178 5.72656C51.3949 5.87534 51.5727 5.94219 51.6442 6.0694C51.7581 6.24621 51.8106 6.45522 51.7938 6.66451C51.771 6.83436 51.6965 6.99318 51.5802 7.11962C51.4639 7.24607 51.3115 7.33405 51.1434 7.37175C50.9851 7.39762 50.7704 7.21435 50.623 7.08066C50.5709 7.03538 50.6078 6.84348 50.6555 6.73998C50.8095 6.41008 50.9872 6.09096 51.178 5.72656Z" fill="#0F4D94"/>
<path id="Vector_56" d="M9.62109 2.03386C9.83792 1.70396 10.0331 1.387 10.226 1.07003C10.3388 0.8846 10.4559 0.893224 10.5925 1.03553C10.8266 1.27918 11.0652 1.55087 10.9047 1.89802C10.5925 2.58585 10.2998 2.72816 9.62109 2.03386Z" fill="#0F4D94"/>
<path id="Vector_57" d="M42.9814 7.71094C43.0204 7.77258 43.0662 7.82972 43.118 7.88128C43.7901 8.42033 43.6362 8.51089 43.2134 9.1405C43.1665 9.17539 43.1123 9.19916 43.0548 9.21C42.9973 9.22084 42.9381 9.21846 42.8816 9.20304C42.7388 9.14822 42.6072 9.06783 42.4935 8.96585C42.4238 8.91189 42.3748 8.83578 42.3547 8.75023C42.3114 8.52814 42.7212 7.83815 42.9814 7.71094Z" fill="#0F4D94"/>
<path id="Vector_58" d="M4.99331 3.83594C5.05619 3.87259 5.11473 3.90062 5.16894 3.93943C5.74136 4.34265 5.72835 5.06066 5.1169 5.40781C4.84587 5.5609 4.70059 5.25041 4.52713 5.11672C4.49462 5.06842 4.47412 5.01311 4.46734 4.95538C4.46055 4.89764 4.46767 4.83913 4.48811 4.78467C4.63121 4.47202 4.81118 4.17231 4.99331 3.83594Z" fill="#0F4D94"/>
<path id="Vector_59" d="M1.01131 3.82031C1.09631 3.87216 1.16678 3.94452 1.21615 4.03068C1.26552 4.11684 1.2922 4.21401 1.29371 4.31317C1.29522 4.41232 1.27152 4.51025 1.22481 4.59787C1.17809 4.68548 1.10987 4.75994 1.02649 4.81432C0.850857 4.92213 0.733772 4.85313 0.705585 4.6483C0.696653 4.34348 0.806139 4.04695 1.01131 3.82031ZM0.820502 4.22784L0.859529 4.61811L1.13924 4.43052L0.820502 4.22784Z" fill="#0F4D94"/>
<path id="Vector_60" d="M47.5156 6.76912L49.183 5.09375C48.899 5.91095 48.1444 6.27751 47.5156 6.76912Z" fill="#0F4D94"/>
<path id="Vector_61" d="M2.32703 4.97131C2.39273 4.68767 2.43551 4.39925 2.45496 4.10883C2.43132 3.83112 2.38564 3.55571 2.31836 3.28516C2.84308 3.93202 2.84524 4.36326 2.32703 4.97131Z" fill="#0F4D94"/>
<path id="Vector_62" d="M0.506573 3.30469C0.292919 3.84845 0.30226 4.45386 0.532591 4.99084C-0.0224829 4.52295 -0.0268183 3.91058 0.506573 3.30469Z" fill="#0F4D94"/>
<path id="Vector_63" d="M2.10106 4.22266C1.99481 4.70349 1.86905 4.82424 1.51562 4.83718L2.10106 4.22266Z" fill="#0F4D94"/>
<path id="Vector_64" d="M48.6406 13.4231L49.3757 12.9336L49.4255 13.0026L48.7078 13.5028L48.6406 13.4231Z" fill="#0F4D94"/>
<path id="Vector_65" d="M50.1994 47.3286C42.8967 54.5821 35.5926 61.8413 28.287 69.1063C28.2748 69.027 28.2668 68.9471 28.2632 68.867C28.2632 67.1679 28.2632 65.4688 28.2632 63.7697C28.2632 63.5541 28.3195 63.4786 28.5342 63.4118C29.3995 63.1631 30.1389 62.5995 30.605 61.833C31.0711 61.0666 31.2298 60.1537 31.0494 59.2761C30.7111 57.562 29.0307 56.3157 27.2094 56.4321C26.3559 56.4883 25.5492 56.84 24.9293 57.4261C24.3094 58.0122 23.9155 58.7957 23.8161 59.6405C23.5992 61.2555 24.6834 62.8749 26.3421 63.3902C26.3943 63.3977 26.4444 63.4157 26.4894 63.443C26.5345 63.4703 26.5735 63.5064 26.6041 63.5491C26.6347 63.5919 26.6562 63.6403 26.6675 63.6916C26.6787 63.7428 26.6794 63.7958 26.6695 63.8473C26.6565 65.5119 26.6695 67.1765 26.6695 68.8432V69.1516L4.68555 47.3006L27.4284 24.6992L50.1994 47.3286ZM28.2718 46.6645H35.1214C35.0238 44.1417 34.6118 41.7052 33.6469 39.3614C31.939 40.0681 30.1231 40.4822 28.2762 40.5861L28.2718 46.6645ZM35.1214 48.0358H28.2762V54.0883C30.1347 54.1907 31.9621 54.6078 33.6795 55.3217C34.6248 52.9714 35.0303 50.5478 35.1214 48.0358ZM19.8091 46.6666H26.6478V40.584C24.8013 40.4892 22.9841 40.0854 21.2727 39.3895C20.3122 41.7354 19.9045 44.1568 19.807 46.6666H19.8091ZM19.8091 48.0251C19.9002 50.5435 20.3013 52.9649 21.2423 55.3001C22.9613 54.5912 24.7894 54.1799 26.6478 54.084V48.0251H19.8091ZM17.5585 37.2828C15.4228 38.8332 13.2025 43.7256 13.3239 46.6645H18.3347C18.5147 45.3126 18.6274 43.9714 18.8898 42.6583C19.1522 41.3451 19.562 40.0708 19.9067 38.7771L17.5585 37.2828ZM17.5585 57.383C18.2783 56.9324 18.9635 56.486 19.6682 56.0742C19.911 55.9319 19.9761 55.8262 19.8655 55.5438C19.0687 53.4663 18.602 51.2781 18.4822 49.0579C18.4605 48.7107 18.4323 48.3636 18.4084 48.0272H13.313C13.4919 51.5677 15.0081 54.9106 17.5585 57.3873V57.383ZM34.9327 38.8051C35.9561 41.3085 36.418 43.9498 36.5242 46.6623H41.5741C41.4061 43.1103 39.8925 39.7532 37.3373 37.2656L34.9327 38.8051ZM36.5242 48.0251C36.4669 50.7131 35.9409 53.3709 34.9696 55.8801L37.3135 57.3895C39.8671 54.9115 41.3864 51.5665 41.5676 48.0229L36.5242 48.0251ZM21.8603 38.1065C22.9618 38.6671 25.6656 39.2579 26.65 39.1674V33.7057C24.2541 34.3504 22.9791 36.1185 21.8495 38.1044L21.8603 38.1065ZM28.2848 39.1846C29.9241 39.135 32.2354 38.5572 33.055 38.0591C31.9427 36.0969 30.6591 34.3332 28.2848 33.7079V39.1846ZM23.3499 33.8782C21.625 34.3763 20.0168 35.2104 18.6188 36.332L20.5832 37.5675C21.2717 36.1832 22.2052 34.9335 23.3391 33.8782H23.3499ZM36.2619 36.3276C34.8979 35.2372 33.3316 34.424 31.6522 33.9342C32.7456 34.9759 33.654 36.1941 34.3386 37.5373C34.9891 37.1276 35.5919 36.7438 36.251 36.3276H36.2619Z" fill="#0F4D94"/>
<path id="Vector_66" d="M7.41579 27.415V27.9432C7.41579 32.73 7.41579 37.5168 7.41579 42.3036C7.42148 42.4224 7.40072 42.5411 7.35499 42.651C7.30927 42.761 7.2397 42.8595 7.15127 42.9397C6.32733 43.7418 5.51857 44.559 4.66211 45.415V24.668H25.4774C25.4036 24.7542 25.3494 24.8254 25.2866 24.8836C24.519 25.649 23.7449 26.408 22.986 27.1821C22.9117 27.2615 22.8207 27.3236 22.7196 27.3643C22.6184 27.4049 22.5095 27.4229 22.4006 27.4171C17.5524 27.4171 12.7056 27.4171 7.86029 27.4171L7.41579 27.415Z" fill="#0F4D94"/>
<path id="Vector_67" d="M4.6582 49.2617C5.36722 49.9776 5.98734 50.6848 6.6942 51.2929C7.27746 51.7974 7.43791 52.3537 7.43357 53.1041C7.39888 57.6321 7.41623 62.1602 7.41623 66.7011V67.2165H7.84988C12.675 67.2165 17.4993 67.2165 22.323 67.2165C22.4372 67.2105 22.5513 67.2299 22.657 67.2731C22.7628 67.3164 22.8575 67.3825 22.9344 67.4666C23.7475 68.2924 24.5736 69.1053 25.4366 69.9635H4.6582V49.2617Z" fill="#0F4D94"/>
<path id="Vector_68" d="M50.2077 24.6705V45.258L50.1209 45.3313C49.826 45.0122 49.5377 44.6844 49.2341 44.3739C48.7224 43.8543 48.2064 43.3368 47.6795 42.8323C47.5985 42.7595 47.5348 42.6697 47.4932 42.5693C47.4515 42.469 47.4329 42.3606 47.4388 42.2522C47.4388 37.4525 47.4388 32.6542 47.4388 27.8574V27.4068H46.9705C42.1569 27.4068 37.3427 27.4068 32.5277 27.4068C32.4137 27.4118 32.3001 27.3918 32.1948 27.3482C32.0894 27.3046 31.9951 27.2385 31.9184 27.1545C31.166 26.389 30.4006 25.6451 29.6396 24.8797C29.5789 24.8193 29.5247 24.7546 29.4336 24.6641L50.2077 24.6705Z" fill="#0F4D94"/>
<path id="Vector_69" d="M47.4445 67.2192V66.788C47.4445 62.0127 47.4445 57.2374 47.4445 52.4622C47.4384 52.3485 47.4575 52.2348 47.5006 52.1294C47.5437 52.0239 47.6097 51.9292 47.6938 51.8519C48.5243 51.0412 49.3417 50.2175 50.2047 49.3594V69.9749H29.5C29.5781 69.8843 29.6344 69.811 29.6995 69.7463C30.4584 68.9895 31.2173 68.237 31.9761 67.4737C32.053 67.3891 32.1476 67.3225 32.2533 67.2785C32.359 67.2345 32.4731 67.2143 32.5876 67.2192C37.2913 67.2279 41.9942 67.2279 46.6964 67.2192H47.4445Z" fill="#0F4D94"/>
</g>
<defs>
<clipPath id="clip0_882_3437">
<rect width="55" height="82.1429" fill="white" transform="translate(0 0.929688)"/>
</clipPath>
</defs>
</svg>
